<svg xmlns="http://www.w3.org/2000/svg" xmlns:xlink="http://www.w3.org/1999/xlink" viewBox="0 0 1566.24 1098.19"><defs><style>.cls-1,.cls-10,.cls-11,.cls-12,.cls-13,.cls-14,.cls-15,.cls-16,.cls-17,.cls-18,.cls-19,.cls-20,.cls-5,.cls-6,.cls-7,.cls-8,.cls-9{fill:none;}.cls-2{fill:#ff8b00;}.cls-3{opacity:0.1;}.cls-4{clip-path:url(#clip-path);}.cls-10,.cls-11,.cls-12,.cls-13,.cls-14,.cls-15,.cls-16,.cls-17,.cls-18,.cls-19,.cls-20,.cls-5,.cls-6,.cls-7,.cls-8,.cls-9{stroke-linejoin:round;stroke-width:50.46px;}.cls-5{stroke:url(#linear-gradient);}.cls-6{stroke:url(#linear-gradient-2);}.cls-7{stroke:url(#linear-gradient-3);}.cls-8{stroke:url(#linear-gradient-4);}.cls-9{stroke:url(#linear-gradient-5);}.cls-10{stroke:url(#linear-gradient-6);}.cls-11{stroke:url(#linear-gradient-7);}.cls-12{stroke:url(#linear-gradient-8);}.cls-13{stroke:url(#linear-gradient-9);}.cls-14{stroke:url(#linear-gradient-10);}.cls-15{stroke:url(#linear-gradient-11);}.cls-16{stroke:url(#linear-gradient-12);}.cls-17{stroke:url(#linear-gradient-13);}.cls-18{stroke:url(#linear-gradient-14);}.cls-19{stroke:url(#linear-gradient-15);}.cls-20{stroke:url(#linear-gradient-16);}</style><clipPath id="clip-path" transform="translate(75.34 251.85)"><rect class="cls-1" y="1.44" width="1440" height="780.14"/></clipPath><linearGradient id="linear-gradient" x1="1290.2" y1="479.35" x2="1411.36" y2="479.35" gradientTransform="translate(-163.25 -34.61)" gradientUnits="userSpaceOnUse"><stop offset="0.08" stop-color="#ff0"/><stop offset="0.16" stop-color="#ffff08"/><stop offset="0.29" stop-color="#ffff1f"/><stop offset="0.44" stop-color="#ff4"/><stop offset="0.62" stop-color="#ffff78"/><stop offset="0.81" stop-color="#ffffb9"/><stop offset="1" stop-color="#fff"/></linearGradient><linearGradient id="linear-gradient-2" x1="617.29" y1="882.95" x2="948.18" y2="882.95" gradientTransform="translate(-238.59 -286.46)" gradientUnits="userSpaceOnUse"><stop offset="0.02" stop-color="#ff0"/><stop offset="0.23" stop-color="#ffff3a"/><stop offset="0.96" stop-color="#fff"/></linearGradient><linearGradient id="linear-gradient-3" x1="1218.97" y1="967.35" x2="1549.86" y2="967.35" xlink:href="#linear-gradient-2"/><linearGradient id="linear-gradient-4" x1="926.02" y1="-1535.61" x2="1256.91" y2="-1535.61" gradientTransform="matrix(1, 0, 0, -1, -238.59, -1622.01)" xlink:href="#linear-gradient-2"/><linearGradient id="linear-gradient-5" x1="818.07" y1="-1381.79" x2="1184.2" y2="-1381.79" gradientTransform="translate(2117.41 -1166.91) rotate(180)" xlink:href="#linear-gradient-2"/><linearGradient id="linear-gradient-6" x1="1789.1" y1="-1666.28" x2="2192.75" y2="-1666.28" gradientTransform="translate(2117.41 -1166.91) rotate(180)" xlink:href="#linear-gradient-2"/><linearGradient id="linear-gradient-7" x1="2013.39" y1="-288.93" x2="2293.61" y2="-288.93" gradientTransform="translate(542.68 -1668.2) rotate(90)" xlink:href="#linear-gradient"/><linearGradient id="linear-gradient-8" x1="400.09" y1="-1093.86" x2="705.46" y2="-1093.86" gradientTransform="matrix(-0.82, -0.57, 0.57, -0.82, 1721.9, -538.32)" xlink:href="#linear-gradient-2"/><linearGradient id="linear-gradient-9" x1="-467.71" y1="-1088.42" x2="-162.34" y2="-1088.42" gradientTransform="matrix(-0.82, -0.57, 0.57, -0.82, 1721.9, -538.32)" xlink:href="#linear-gradient"/><linearGradient id="linear-gradient-10" x1="300.19" y1="323.46" x2="706.22" y2="323.46" gradientTransform="translate(-238.59 -286.46)" xlink:href="#linear-gradient"/><linearGradient id="linear-gradient-11" x1="740.54" y1="859.81" x2="861.69" y2="859.81" gradientTransform="translate(-163.25 -34.61)" xlink:href="#linear-gradient-2"/><linearGradient id="linear-gradient-12" x1="1142.06" y1="578.02" x2="1263.21" y2="578.02" gradientTransform="translate(-163.25 -34.61)" xlink:href="#linear-gradient-2"/><linearGradient id="linear-gradient-13" x1="1716.91" y1="-522.15" x2="1838.06" y2="-522.15" gradientTransform="translate(221.02 -1214.3) rotate(90)" xlink:href="#linear-gradient"/><linearGradient id="linear-gradient-14" x1="935.07" y1="-2120.03" x2="1056.23" y2="-2120.03" gradientTransform="translate(2396.37 -1830.76) rotate(180)" xlink:href="#linear-gradient"/><linearGradient id="linear-gradient-15" x1="1813.02" y1="-2393.94" x2="1934.17" y2="-2393.94" gradientTransform="translate(2396.37 -1830.76) rotate(180)" xlink:href="#linear-gradient"/><linearGradient id="linear-gradient-16" x1="2704.92" y1="-389.52" x2="2840.7" y2="-389.52" gradientTransform="translate(-151.48 -1046.77) rotate(90) scale(0.65 1)" xlink:href="#linear-gradient-2"/></defs><g id="Layer_2" data-name="Layer 2"><g id="Bgs"><rect class="cls-2" x="75.34" y="251.85" width="1440" height="781.58"/></g><g id="Info"><g class="cls-3"><g class="cls-4"><line class="cls-5" x1="1126.95" y1="444.75" x2="1248.1" y2="444.75"/><path class="cls-6" d="M684.36,596.49A140.22,140.22,0,1,1,544.14,456.28" transform="translate(75.34 251.85)"/><path class="cls-7" d="M1286,680.89a140.22,140.22,0,1,1-140.22-140.22" transform="translate(75.34 251.85)"/><path class="cls-8" d="M993.09-86.41A140.22,140.22,0,0,0,852.87-226.62,140.21,140.21,0,0,0,712.66-86.41,140.21,140.21,0,0,0,852.87,53.81" transform="translate(75.34 251.85)"/><path class="cls-9" d="M958.44,214.88a157.83,157.83,0,1,1,157.83,157.83" transform="translate(75.34 251.85)"/><path class="cls-10" d="M-50.11,499.37A176.59,176.59,0,1,1,126.48,676" transform="translate(75.34 251.85)"/><path class="cls-11" d="M831.61,370.43A114.88,114.88,0,1,1,716.74,485.3" transform="translate(75.34 251.85)"/><path class="cls-12" d="M751.79,122.34A127.46,127.46,0,1,1,718.93-54.9" transform="translate(75.34 251.85)"/><path class="cls-13" d="M1470.11,609.38a127.46,127.46,0,1,1-32.86-177.24" transform="translate(75.34 251.85)"/><path class="cls-14" d="M442.39,37A177.78,177.78,0,1,1,264.61-140.79" transform="translate(75.34 251.85)"/><line class="cls-15" x1="577.28" y1="825.2" x2="698.44" y2="825.2"/><line class="cls-16" x1="978.8" y1="543.41" x2="1099.96" y2="543.41"/><line class="cls-17" x1="743.17" y1="502.6" x2="743.17" y2="623.76"/><line class="cls-18" x1="1461.3" y1="289.28" x2="1340.14" y2="289.28"/><line class="cls-19" x1="583.36" y1="563.18" x2="462.2" y2="563.18"/><line class="cls-20" x1="238.04" y1="716.03" x2="238.04" y2="804.51"/></g></g></g></g></svg>